<?xml version="1.0" encoding="UTF-8"?>
<svg width="24px" height="24px" viewBox="0 0 24 24" version="1.1" xmlns="http://www.w3.org/2000/svg" xmlns:xlink="http://www.w3.org/1999/xlink">
    <!-- Generator: Sketch 52.2 (67145) - http://www.bohemiancoding.com/sketch -->
    <title>Artboard Copy 3</title>
    <desc>Created with Sketch.</desc>
    <g id="Artboard-Copy-3" stroke="none" stroke-width="1" fill="none" fill-rule="evenodd">
        <path d="M21.1720655,7.15025685 L2.83224903,7.15025685 C1.82299602,7.15025685 1,7.95024758 1,8.93549933 L1,15.4238452 C1,16.4048865 1.82299602,17.2048772 2.83224903,17.2048772 L21.167734,17.2048772 C22.176987,17.2048772 22.999983,16.4048865 22.999983,15.4238452 L22.999983,8.93549933 C23.0043145,7.95024758 22.1813185,7.15025685 21.1720655,7.15025685 L21.1720655,7.15025685 Z M21.884095,15.5131499 C21.884095,15.8503946 21.6083811,16.1227846 21.2670209,16.1227846 L2.73729359,16.1227846 C2.39593348,16.1227846 2.12021953,15.8503946 2.12021953,15.5131499 L2.12021953,8.8504051 C2.12021953,8.51316039 2.39593348,8.24077044 2.73729359,8.24077044 L21.2626445,8.24077044 C21.6040047,8.24077044 21.8797186,8.51316039 21.8797186,8.8504051 L21.8797186,15.5131499 L21.884095,15.5131499 Z M19.5693891,13.6428132 L4.43492548,13.6428132 C4.09706396,13.6428132 3.8241758,13.8640514 3.8241758,14.1379654 C3.8241758,14.4118794 4.09706396,14.6331176 4.43492548,14.6331176 L19.5650575,14.6331176 C19.902919,14.6331176 20.1758072,14.4118794 20.1758072,14.1379654 C20.1758072,13.8640514 19.902919,13.6428132 19.5693891,13.6428132 Z M14.6037729,10.6112694 L9.04930629,10.6112694 C8.92530847,10.6112694 8.82515638,10.8325076 8.82515638,11.1064216 C8.82515638,11.3803355 8.92530847,11.6015737 9.04930629,11.6015737 L14.6021832,11.6015737 C14.726181,11.6015737 14.8263331,11.3803355 14.8263331,11.1064216 C14.8263331,10.8325076 14.726181,10.6112694 14.6037729,10.6112694 Z M5.57423098,19.7003187 C5.46114751,19.4299195 5.35016239,19.2338344 5.28275739,19.1357883 C5.13478126,18.9205449 5.20387816,18.6353397 5.43708963,18.4987646 C5.6703011,18.3621895 5.9793147,18.4259627 6.12729083,18.6412061 C6.22776399,18.7873525 6.3685961,19.0361705 6.50732986,19.3679032 C6.99470936,20.533299 7.05671783,21.7751925 6.40421821,22.9498669 C6.2309541,23.2617887 6.00944681,23.5605148 5.73787353,23.8441019 C5.55496136,24.0351057 5.23891689,24.0530897 5.03196843,23.8842703 C4.82501997,23.7154508 4.80553471,23.4237564 4.98844688,23.2327526 C5.2050349,23.0065832 5.37921219,22.7716867 5.51417388,22.5287194 C6.01723146,21.6230808 5.96827189,20.6425282 5.57423098,19.7003187 Z M9.17264445,19.7003187 C9.05956097,19.4299195 8.94857585,19.2338344 8.88117086,19.1357883 C8.73319473,18.9205449 8.80229163,18.6353397 9.0355031,18.4987646 C9.26871457,18.3621895 9.57772817,18.4259627 9.7257043,18.6412061 C9.82617745,18.7873525 9.96700957,19.0361705 10.1057433,19.3679032 C10.5931228,20.533299 10.6551313,21.7751925 10.0026317,22.9498669 C9.82936756,23.2617887 9.60786028,23.5605148 9.336287,23.8441019 C9.15337483,24.0351057 8.83733035,24.0530897 8.6303819,23.8842703 C8.42343344,23.7154508 8.40394818,23.4237564 8.58686034,23.2327526 C8.80344837,23.0065832 8.97762566,22.7716867 9.11258735,22.5287194 C9.61564492,21.6230808 9.56668536,20.6425282 9.17264445,19.7003187 Z M18.1745465,19.7003187 C17.7805056,20.6425282 17.7315461,21.6230808 18.2346036,22.5287194 C18.3695653,22.7716867 18.5437426,23.0065832 18.7603307,23.2327526 C18.9432428,23.4237564 18.9237576,23.7154508 18.7168091,23.8842703 C18.5098606,24.0530897 18.1938162,24.0351057 18.010904,23.8441019 C17.7393307,23.5605148 17.5178234,23.2617887 17.3445593,22.9498669 C16.6920597,21.7751925 16.7540682,20.533299 17.2414477,19.3679032 C17.3801814,19.0361705 17.5210135,18.7873525 17.6214867,18.6412061 C17.7694628,18.4259627 18.0784764,18.3621895 18.3116879,18.4987646 C18.5448994,18.6353397 18.6139963,18.9205449 18.4660201,19.1357883 C18.3986151,19.2338344 18.28763,19.4299195 18.1745465,19.7003187 Z M14.5715358,19.7003187 C14.1774949,20.6425282 14.1285353,21.6230808 14.6315929,22.5287194 C14.7665546,22.7716867 14.9407318,23.0065832 15.1573199,23.2327526 C15.340232,23.4237564 15.3207468,23.7154508 15.1137983,23.8842703 C14.9068499,24.0530897 14.5908054,24.0351057 14.4078932,23.8441019 C14.1363199,23.5605148 13.9148127,23.2617887 13.7415485,22.9498669 C13.0890489,21.7751925 13.1510574,20.533299 13.6384369,19.3679032 C13.7771706,19.0361705 13.9180028,18.7873525 14.0184759,18.6412061 C14.1664521,18.4259627 14.4754657,18.3621895 14.7086771,18.4987646 C14.9418886,18.6353397 15.0109855,18.9205449 14.8630094,19.1357883 C14.7956044,19.2338344 14.6846192,19.4299195 14.5715358,19.7003187 Z M17.3059482,5.11731004 C16.1340702,5.42912676 14.5982934,5.60374412 12.9699998,5.60374412 C11.3417062,5.60374412 9.79976157,5.43328432 8.63405141,5.11731004 C7.83840796,4.90527467 6.5,4.41884059 6.5,3.57901423 C6.5,3.09927597 7.02992185,2.65161721 8.08976554,2.23603796 L8.08977434,2.23606041 C8.41279173,2.10940086 8.78010105,2.18480112 9.02709808,2.42847168 L9.03605701,2.43726947 C9.17125004,2.57064177 9.17272603,2.78835699 9.03935373,2.92355002 C8.99978244,2.96366152 8.95096052,2.99343427 8.89718253,3.01024934 C8.22731484,3.21970072 7.91858909,3.445603 7.91858909,3.57901423 C7.91858909,3.72868626 8.30715914,3.99476986 9.15831259,4.22343545 C10.1636605,4.49367661 11.5205718,4.64334863 12.9699998,4.64334863 C14.4194278,4.64334863 15.7763391,4.49367661 16.781687,4.22343545 C17.6328404,3.99476986 18.0214105,3.72868626 18.0214105,3.57901423 C18.0214105,3.42934221 17.6328404,3.16325861 16.781687,2.93459301 C16.4301236,2.83896922 16.0353858,2.75997565 15.6036413,2.69761231 C15.6036413,2.69761231 15.0732123,2.60614607 14.5427833,2.54794028 L14.5571876,3.17663512 C14.5609827,3.34227707 14.4297799,3.47963293 14.2641379,3.48342802 C14.224908,3.48432682 14.1858829,3.47752067 14.1492733,3.46339513 L11.6759809,2.50909277 C11.5214028,2.44944991 11.4444426,2.2757895 11.5040855,2.1212114 C11.5346874,2.04189947 11.5975015,1.97929454 11.6769151,1.9489573 L14.1090742,1.01983416 C14.2638504,0.960707214 14.4372531,1.03824624 14.4963801,1.19302242 C14.5085687,1.22492862 14.5152194,1.25868194 14.5160453,1.29282703 L14.52428,1.63327791 C14.8450045,1.63743547 15.2335745,1.65822325 15.6221446,1.72058659 C16.2327547,1.79958016 16.8001903,1.90767662 17.3059482,2.04071842 C18.1015916,2.25275379 19.4399996,2.73918787 19.4399996,3.57901423 C19.4399996,4.41884059 18.1015916,4.90111712 17.3059482,5.11731004 Z" id="centralised-ac" fill="#000000"></path>
    </g>
</svg>