<?xml version="1.0" encoding="UTF-8"?>
<svg width="24px" height="24px" viewBox="0 0 24 24" version="1.1" xmlns="http://www.w3.org/2000/svg" xmlns:xlink="http://www.w3.org/1999/xlink">
    <!-- Generator: Sketch 52.2 (67145) - http://www.bohemiancoding.com/sketch -->
    <title>Artboard Copy 3</title>
    <desc>Created with Sketch.</desc>
    <g id="Artboard-Copy-3" stroke="none" stroke-width="1" fill="none" fill-rule="evenodd">
        <g id="Group-2-Copy" transform="translate(0.000000, -2.000000)">
            <rect id="Rectangle-2" x="0" y="0" width="24" height="24"></rect>
            <path d="M3.25,4 C2.977803,4 2.75,4.28172846 2.75,4.51282051 L2.75,10.3221154 L1.0234375,15.8910256 C1.0016254,15.9613792 1,16.0294979 1,16.099359 L1,23.4871795 C1,23.7704023 1.22385762,24 1.5,24 C1.77614238,24 2,23.7704023 2,23.4871795 L2,21.6923077 L12,21.6923077 L22,21.6923077 L22,23.4871795 C22,23.7703846 22.2238575,24 22.5,24 C22.7761425,24 23,23.7703846 23,23.4871795 L23,16.099359 C23,16.0294872 22.9983625,15.9613846 22.9765625,15.8910256 L21.25,10.3221154 L21.25,4.51282051 C21.25,4.28172821 21.0221975,4 20.75,4 L12,4 L3.25,4 L3.25,4 Z M3.75,5.02564103 L12,5.02564103 L20.25,5.02564103 L20.25,7.59775641 C19.8314775,7.27404615 19.3122225,7.07692308 18.75,7.07692308 L14,7.07692308 C13.181655,7.07692308 12.456605,7.49152051 12,8.11858974 C11.543395,7.49152103 10.818346,7.07692308 10,7.07692308 L5.25,7.07692308 C4.68777875,7.07692308 4.16852275,7.27404487 3.75,7.59775641 L3.75,5.02564103 L3.75,5.02564103 Z M5.25,8.1025641 L10,8.1025641 C10.8396745,8.1025641 11.5,8.77982051 11.5,9.64102564 L11.5,9.8974359 L3.75,9.8974359 L3.75,9.64102564 C3.75,8.77982051 4.4103255,8.1025641 5.25,8.1025641 L5.25,8.1025641 Z M14,8.1025641 L18.75,8.1025641 C19.589675,8.1025641 20.25,8.77982051 20.25,9.64102564 L20.25,9.8974359 L12.5,9.8974359 L12.5,9.64102564 C12.5,8.77982051 13.160325,8.1025641 14,8.1025641 L14,8.1025641 Z M3.6171875,10.9230769 L12,10.9230769 L20.3828125,10.9230769 L21.8203125,15.5384615 L12,15.5384615 L2.1796875,15.5384615 L3.6171875,10.9230769 L3.6171875,10.9230769 Z M2,16.5641026 L12,16.5641026 L22,16.5641026 L22,20.6666667 L12,20.6666667 L2,20.6666667 L2,16.5641026 L2,16.5641026 Z" id="bed2" fill="#000000"></path>
        </g>
    </g>
</svg>