<?xml version="1.0" encoding="UTF-8"?>
<svg width="24px" height="24px" viewBox="0 0 24 24" version="1.1" xmlns="http://www.w3.org/2000/svg" xmlns:xlink="http://www.w3.org/1999/xlink">
    <!-- Generator: Sketch 52.2 (67145) - http://www.bohemiancoding.com/sketch -->
    <title>Artboard Copy 3</title>
    <desc>Created with Sketch.</desc>
    <g id="Artboard-Copy-3" stroke="none" stroke-width="1" fill="none" fill-rule="evenodd" fill-opacity="0.999000013">
        <path d="M1,7.24999582 C1.00114587,7.30604828 1.01170985,7.36150897 1.03125,7.41405777 L4.28125,16.6640268 C4.35068788,16.8639018 4.53841182,16.9984368 4.75,16.9999632 L7.75,16.9999632 L7.75,19.2499557 C7.75,19.6741042 7.42414825,19.9999532 7,19.9999532 L3.75,19.9999532 C3.56968246,19.9974037 3.40196041,20.0921413 3.31105763,20.2478893 C3.22015485,20.4036373 3.22015485,20.5962657 3.31105763,20.7520137 C3.40196041,20.9077617 3.56968246,21.0024993 3.75,20.9999498 L7,20.9999498 C7.96085125,20.9999498 8.75,20.2108024 8.75,19.2499557 L8.75,16.9999632 L19,16.9999632 C19.2761309,16.9999356 19.4999724,16.7760949 19.5,16.4999649 L19.5,15.249969 L22.5,15.249969 C22.7761309,15.2499414 22.9999724,15.0261007 23,14.7499707 L23,8.24999247 C22.9999724,7.97386246 22.7761309,7.75002175 22.5,7.74999414 L19.5,7.74999414 L19.5,6.49999833 C19.4999724,6.22386831 19.2761309,6.0000276 19,6 L2.25,6 C1.56556552,6 1,6.56556561 1,7.24999582 Z M2.35146909,7.09945138 L18.4000006,7.09945138 L18.4000006,15.8994221 L8.3696684,15.8994221 C8.32145995,15.8896594 8.27204845,15.8870846 8.22307123,15.8917833 C8.2075264,15.8936017 8.19207768,15.8961509 8.17677739,15.8994221 L5.16767774,15.8994221 L2.11999989,7.30570069 C2.1396265,7.18817708 2.2247647,7.09945138 2.35146909,7.09945138 L2.35146909,7.09945138 Z M16,7.99999331 C15.1774952,7.99999331 14.5,8.67748604 14.5,9.49998829 C14.5,10.3224905 15.1774952,10.9999833 16,10.9999833 C16.8225048,10.9999833 17.5,10.3224905 17.5,9.49998829 C17.5,8.67748604 16.8225048,7.99999331 16,7.99999331 L16,7.99999331 Z M19.3999996,8.74944595 L21.9999995,8.74944595 L21.9999995,14.2494275 L19.3999996,14.2494275 L19.3999996,8.74944595 L19.3999996,8.74944595 Z M15.9999996,8.89944507 C16.3384774,8.89944507 16.5999997,9.1609662 16.5999997,9.49944309 C16.5999997,9.83791997 16.3384774,10.0994411 15.9999996,10.0994411 C15.6615219,10.0994411 15.3999996,9.83791997 15.3999996,9.49944309 C15.3999996,9.1609662 15.6615219,8.89944507 15.9999996,8.89944507 L15.9999996,8.89944507 Z" id="cctv" fill="#000000"></path>
    </g>
</svg>