<?xml version="1.0" encoding="UTF-8"?>
<svg width="24px" height="24px" viewBox="0 0 24 24" version="1.1" xmlns="http://www.w3.org/2000/svg" xmlns:xlink="http://www.w3.org/1999/xlink">
    <!-- Generator: Sketch 52.2 (67145) - http://www.bohemiancoding.com/sketch -->
    <title>Artboard</title>
    <desc>Created with Sketch.</desc>
    <g id="Artboard" stroke="none" stroke-width="1" fill="none" fill-rule="evenodd">
        <path d="M10.7777778,10.8654874 C11.0027827,10.8654874 11.1851852,11.0469824 11.1851852,11.2708679 L11.1851852,15.3246729 C11.1851852,15.5485584 11.0027827,15.7300534 10.7777778,15.7300534 L5.88888889,15.7300534 C5.66388401,15.7300534 5.48148148,15.5485584 5.48148148,15.3246729 L5.48148148,11.2708679 C5.48148148,11.0469824 5.66388401,10.8654874 5.88888889,10.8654874 L10.7777778,10.8654874 Z M6.2962963,11.6762484 L6.2962963,14.9192924 L10.3703704,14.9192924 L10.3703704,11.6762484 L6.2962963,11.6762484 Z M18.1111111,13.7031509 C17.8861062,13.7031509 17.7037037,13.5216559 17.7037037,13.2977704 C17.7037037,13.073885 17.8861062,12.8923899 18.1111111,12.8923899 L22.5925926,12.8923899 C22.8175975,12.8923899 23,13.073885 23,13.2977704 C23,13.5216559 22.8175975,13.7031509 22.5925926,13.7031509 L20.5555556,13.7031509 L20.5555556,20.5946195 C20.5555556,20.8185049 20.373153,21 20.1481481,21 C19.9231433,21 19.7407407,20.8185049 19.7407407,20.5946195 L19.7407407,13.7031509 L18.1111111,13.7031509 Z M3.44444444,13.7031509 L1.40740741,13.7031509 C1.18240251,13.7031509 1,13.5216559 1,13.2977704 C1,13.073885 1.18240251,12.8923899 1.40740741,12.8923899 L5.88888889,12.8923899 C6.11389377,12.8923899 6.2962963,13.073885 6.2962963,13.2977704 C6.2962963,13.5216559 6.11389377,13.7031509 5.88888889,13.7031509 L4.25925926,13.7031509 L4.25925926,20.5946195 C4.25925926,20.8185049 4.07685675,21 3.85185185,21 C3.62684695,21 3.44444444,20.8185049 3.44444444,20.5946195 L3.44444444,13.7031509 Z M10.3703704,17.3515755 L6.2962963,17.3515755 L6.2962963,20.5946195 C6.2962963,20.8185049 6.11389377,21 5.88888889,21 C5.66388401,21 5.48148148,20.8185049 5.48148148,20.5946195 L5.48148148,15.3246729 C5.48148148,15.1007875 5.66388401,14.9192924 5.88888889,14.9192924 C6.11389377,14.9192924 6.2962963,15.1007875 6.2962963,15.3246729 L6.2962963,16.5408144 L10.3703704,16.5408144 L10.3703704,15.3246729 C10.3703704,15.1007875 10.5527729,14.9192924 10.7777778,14.9192924 C11.0027827,14.9192924 11.1851852,15.1007875 11.1851852,15.3246729 L11.1851852,20.5946195 C11.1851852,20.8185049 11.0027827,21 10.7777778,21 C10.5527729,21 10.3703704,20.8185049 10.3703704,20.5946195 L10.3703704,17.3515755 Z M17.7037037,20.5946195 L17.7037037,17.3515755 L13.6296296,17.3515755 L13.6296296,20.5946195 C13.6296296,20.8185049 13.4472271,21 13.2222222,21 C12.9972173,21 12.8148148,20.8185049 12.8148148,20.5946195 L12.8148148,15.3246729 C12.8148148,15.2107012 13.0148945,14.9979343 13.2222222,15 C13.3555195,15.0013281 13.4913219,15.2346452 13.6296296,15.6999512 C13.6296296,15.8201322 13.6296296,16.1004199 13.6296296,16.5408144 L17.7037037,16.5408144 L17.7037037,15.3246729 C17.7037037,15.1007875 17.8861062,14.9192924 18.1111111,14.9192924 C18.336116,14.9192924 18.5185185,15.1007875 18.5185185,15.3246729 L18.5185185,20.5946195 C18.5185185,20.8185049 18.336116,21 18.1111111,21 C17.8861062,21 17.7037037,20.8185049 17.7037037,20.5946195 Z M18.1111111,10.8654874 C18.336116,10.8654874 18.5185185,11.0469824 18.5185185,11.2708679 L18.5185185,15.3246729 C18.5185185,15.5485584 18.336116,15.7300534 18.1111111,15.7300534 L13.2222222,15.7300534 C12.9972173,15.7300534 12.8148148,15.5485584 12.8148148,15.3246729 L12.8148148,11.2708679 C12.8148148,11.0469824 12.9972173,10.8654874 13.2222222,10.8654874 L18.1111111,10.8654874 Z M13.6296296,11.6762484 L13.6296296,14.9192924 L17.7037037,14.9192924 L17.7037037,11.6762484 L13.6296296,11.6762484 Z M12.5074074,4.2667931 C14.2439536,4.42778395 15.7666667,5.37164753 15.7666667,6.36944905 C15.7666667,7.38149621 14.7558072,7.68509305 12,7.68509305 C9.24419281,7.68509305 8.23333333,7.38149621 8.23333333,6.36944905 C8.23333333,5.37164753 9.75604638,4.42778395 11.4925926,4.2667931 L11.4925926,1.50488299 C11.4925926,1.22604382 11.7197666,1 12,1 C12.2802334,1 12.5074074,1.22604382 12.5074074,1.50488299 L12.5074074,4.2667931 Z M12,6.87433204 C13.8231068,6.87433204 14.9518519,6.69667938 14.9518519,6.36944905 C14.9518519,6.15535941 14.6247323,5.8300016 14.1569782,5.57509379 C13.5483561,5.24341849 12.7745629,5.05380505 12,5.05380505 C11.2254371,5.05380505 10.4516439,5.24341849 9.84302183,5.57509379 C9.37526769,5.8300016 9.04814815,6.15535941 9.04814815,6.36944905 C9.04814815,6.69667938 10.1768932,6.87433204 12,6.87433204 Z M11.2000122,13.7031509 C11.6142691,13.7031509 12.1553634,13.7031509 12.8232952,13.7031509 L12.8131862,12.8923899 C12.1499018,12.8923899 11.6121772,12.8923899 11.2000122,12.8923899 L11.2000122,13.7031509 Z" id="dining-area-copy" fill="#000000" fill-rule="nonzero"></path>
    </g>
</svg>