<svg id="Layer_1" data-name="Layer 1" xmlns="http://www.w3.org/2000/svg" xmlns:xlink="http://www.w3.org/1999/xlink" width="24" height="24" viewBox="0 0 24 24">
  <defs>
    <style>
      .cls-1 {
        fill: none;
        clip-rule: evenodd;
      }

      .cls-2 {
        clip-path: url(#clip-path);
      }
    </style>
    <clipPath id="clip-path">
      <path class="cls-1" d="M72.38-400.46a1.87,1.87,0,0,0-1.33.55c-1.73,1.73-.84,3.12-1.63,3.92l-4.14,3.55a.7.7,0,0,0,0,1l0,0a.71.71,0,0,0,.47.18.7.7,0,0,0,.5-.21l3.55-4.13c.8-.81,2.18.09,3.92-1.63a1.93,1.93,0,0,0,0-2.67A1.89,1.89,0,0,0,72.38-400.46Zm-4.82,3.95a2,2,0,0,1,1.32.64l.41-.36a2,2,0,0,1-.68-1.35v-.07a2.44,2.44,0,0,0-.71-1.63l-1.56-1.59a.3.3,0,0,0-.43,0,.3.3,0,0,0,0,.42l1.59,1.59a.3.3,0,0,1,0,.4.27.27,0,0,1-.4,0L65.51-400a.3.3,0,0,0-.43,0,.3.3,0,0,0,0,.42l1.6,1.59a.29.29,0,0,1,0,.4.29.29,0,0,1-.4,0l-1.59-1.6a.31.31,0,0,0-.42,0,.29.29,0,0,0,0,.43l1.58,1.58a2.62,2.62,0,0,0,1.65.72Zm2.07,1.56,2.79,3.25a.68.68,0,0,0,1,0,.68.68,0,0,0,0-1s-2.09-1.8-3.3-2.82Zm6.14,4.21a.55.55,0,0,1-.55.55H63.12a.55.55,0,0,1-.55-.55v-10l6.27-6.93a.44.44,0,0,1,.33-.15.44.44,0,0,1,.33.15l6.27,6.93Zm4.26-7-9.71-10.74a1.54,1.54,0,0,0-1.15-.51,1.53,1.53,0,0,0-1.14.51l-9.72,10.74a.55.55,0,0,0,0,.77.55.55,0,0,0,.37.15.53.53,0,0,0,.41-.19l2.34-2.58v8.82a1.65,1.65,0,0,0,1.65,1.65h12.1a1.65,1.65,0,0,0,1.65-1.65v-8.82L79.21-397a.54.54,0,0,0,.78,0,.54.54,0,0,0,0-.77Z"/>
    </clipPath>
  </defs>
  <title>Artboard 3 copy 14</title>
  <g>
    <path d="M14.86,23.17h-7a.51.51,0,0,1-.5-.5V9.13a4,4,0,1,1,8,0V22.67A.5.5,0,0,1,14.86,23.17Zm-6.53-1h6v-13a3,3,0,1,0-6,0Z"/>
    <path d="M21.5,6.29h-.08l-6.34-1a.51.51,0,0,1-.42-.5V2.26a.49.49,0,0,1,.43-.49L21.43.84a.49.49,0,0,1,.4.12.48.48,0,0,1,.17.37V5.79a.46.46,0,0,1-.18.38A.47.47,0,0,1,21.5,6.29ZM15.66,4.38,21,5.21V1.91l-5.34.78Z"/>
    <path d="M7.93,5.28a.5.5,0,0,1-.4-.8,3.48,3.48,0,0,1,2.8-1.42h4.83a.5.5,0,0,1,.5.5.5.5,0,0,1-.5.5H10.33a2.49,2.49,0,0,0-2,1A.49.49,0,0,1,7.93,5.28Z"/>
    <path d="M11.35,6.07h0a.51.51,0,0,1-.46-.54c0-.23,0-2.37,0-3.66a.5.5,0,0,1,.49-.5h0a.5.5,0,0,1,.5.49c0,.57,0,3.41,0,3.75A.51.51,0,0,1,11.35,6.07Z"/>
  </g>
</svg>
