<?xml version="1.0" encoding="UTF-8"?>
<svg width="24px" height="24px" viewBox="0 0 24 24" version="1.1" xmlns="http://www.w3.org/2000/svg" xmlns:xlink="http://www.w3.org/1999/xlink">
    <!-- Generator: Sketch 52.2 (67145) - http://www.bohemiancoding.com/sketch -->
    <title>Artboard Copy 3</title>
    <desc>Created with Sketch.</desc>
    <g id="Artboard-Copy-3" stroke="none" stroke-width="1" fill="none" fill-rule="evenodd">
        <path d="M22.9611371,4.76868694 L20.2821572,20.4172283 C20.0374905,21.8501376 18.6918011,23 17.2601302,23 L8.73907292,23 C7.30751124,23 5.96258336,21.8502468 5.71793847,20.417465 L3.03887759,4.7684502 C2.78190207,3.26345338 3.82741938,2 5.33065001,2 L20.6685531,2 C22.1718615,2 23.2181398,3.26353147 22.9611371,4.76868694 Z M17.2601302,21.9137931 C18.1720418,21.9137931 19.0731133,21.143847 19.2289269,20.2313131 L21.9079068,4.58277172 C22.0514595,3.74204416 21.5083878,3.08620694 20.6685531,3.08620694 L5.33065001,3.08620694 C4.49106068,3.08620694 3.94855371,3.74179844 4.09210792,4.58253498 L6.7711688,20.2315498 C6.92697848,21.1440611 7.82737516,21.9137931 8.73907292,21.9137931 L17.2601302,21.9137931 Z M7.90707358,10.8920914 L7.05496786,3.59455204 L8.11652777,3.46657652 L8.96952856,10.7723127 C9.30750534,14.0976461 11.2554843,17.3816699 13.1512764,17.3816699 C14.9705374,17.3816699 16.6489188,14.2381072 17.0318478,10.7641159 L17.8839535,3.46657652 L18.9455134,3.59455204 L18.0938094,10.888552 C17.6566001,14.8551031 15.7277019,18.4678769 13.1512764,18.4678769 C10.5312166,18.4678769 8.29358193,14.6955335 7.90707358,10.8920914 Z M11.3331152,19.5256728 C11.3331152,20.4532286 10.5930904,21.2051612 9.68022369,21.2051612 C8.76735694,21.2051612 8.02733222,20.4532286 8.02733222,19.5256728 C8.02733222,18.5981169 8.76735694,17.8461844 9.68022369,17.8461844 C10.5930904,17.8461844 11.3331152,18.5981169 11.3331152,19.5256728 Z M9.09633763,19.5256728 C9.09633763,19.8533331 9.35775232,20.1189542 9.68022369,20.1189542 C10.0026951,20.1189542 10.2641098,19.8533331 10.2641098,19.5256728 C10.2641098,19.1980125 10.0026951,18.9323913 9.68022369,18.9323913 C9.35775232,18.9323913 9.09633763,19.1980125 9.09633763,19.5256728 Z M17.972723,19.5256728 C17.972723,20.4632703 17.2246868,21.2233433 16.3019373,21.2233433 C15.3791878,21.2233433 14.6311516,20.4632703 14.6311516,19.5256728 C14.6311516,18.5880752 15.3791878,17.8280022 16.3019373,17.8280022 C17.2246868,17.8280022 17.972723,18.5880752 17.972723,19.5256728 Z M15.700157,19.5256728 C15.700157,19.8633748 15.9695832,20.1371364 16.3019373,20.1371364 C16.6342914,20.1371364 16.9037176,19.8633748 16.9037176,19.5256728 C16.9037176,19.1879707 16.6342914,18.9142092 16.3019373,18.9142092 C15.9695832,18.9142092 15.700157,19.1879707 15.700157,19.5256728 Z M12.4655249,13.7987256 L12.4655249,10.7142523 L13.5345303,10.7142523 L13.5345303,13.7987256 L12.4655249,13.7987256 Z M10.9210833,4.05631559 L11.455586,4.05631559 L14.5444692,4.05631559 L15.0789719,4.05631559 L15.0789719,4.59941906 L15.0789719,8.92850451 L15.0789719,9.47160797 L14.5444692,9.47160797 L11.455586,9.47160797 L10.9210833,9.47160797 L10.9210833,8.92850451 L10.9210833,4.59941906 L10.9210833,4.05631559 Z M14.5444692,5.14252253 L11.455586,5.14252253 L11.9900887,4.59941906 L11.9900887,8.92850451 L11.455586,8.38540104 L14.5444692,8.38540104 L14.0099665,8.92850451 L14.0099665,4.59941906 L14.5444692,5.14252253 Z" id="geyser-copy" fill="#000000" fill-rule="nonzero"></path>
    </g>
</svg>