<?xml version="1.0" encoding="UTF-8"?>
<svg width="24px" height="24px" viewBox="0 0 24 24" version="1.1" xmlns="http://www.w3.org/2000/svg" xmlns:xlink="http://www.w3.org/1999/xlink">
    <!-- Generator: Sketch 52.2 (67145) - http://www.bohemiancoding.com/sketch -->
    <title>Artboard</title>
    <desc>Created with Sketch.</desc>
    <g id="Artboard" stroke="none" stroke-width="1" fill="none" fill-rule="evenodd">
        <path d="M21.4448819,2 L2.55511811,2 C2.2480315,2 2,2.2480315 2,2.55511811 L2,21.4448819 C2,21.7519685 2.2480315,22 2.55511811,22 L21.4448819,22 C21.7519685,22 22,21.7519685 22,21.4448819 L22,2.55511811 C22,2.2480315 21.7519685,2 21.4448819,2 Z M11.4448819,20.8897638 L3.11023622,20.8897638 L3.11023622,3.11023622 L11.4448819,3.11023622 L11.4448819,20.8897638 Z M20.8897638,20.8897638 L12.5551181,20.8897638 L12.5551181,3.11023622 L20.8897638,3.11023622 L20.8897638,20.8897638 Z M9.57480315,12.5629921 C9.79133858,12.7834646 9.79133858,13.1338583 9.57480315,13.3503937 L7.67322835,15.2519685 C7.56299213,15.3582677 7.42125984,15.4133858 7.27952756,15.4133858 C7.13779528,15.4133858 6.99606299,15.3622047 6.88582677,15.2519685 L4.98425197,13.3543307 C4.76771654,13.1338583 4.76771654,12.7834646 4.98425197,12.5669291 C5.20472441,12.3503937 5.55511811,12.3503937 5.77165354,12.5669291 L6.72440945,13.519685 L6.72440945,9.14173228 C6.72440945,8.83464567 6.97244094,8.58661417 7.27952756,8.58661417 C7.58661417,8.58661417 7.83464567,8.83464567 7.83464567,9.14173228 L7.83464567,13.515748 L8.78740157,12.5629921 C9.00787402,12.3464567 9.35826772,12.3464567 9.57480315,12.5629921 Z M19.019685,10.6456693 L17.1181102,8.74409449 C17.007874,8.63385827 16.8661417,8.58267717 16.7244094,8.58267717 C16.5826772,8.58267717 16.4409449,8.63779528 16.3307087,8.74409449 L14.4291339,10.6456693 C14.2125984,10.8622047 14.2125984,11.2125984 14.4291339,11.4330709 C14.6456693,11.6496063 14.996063,11.6496063 15.2165354,11.4330709 L16.1692913,10.480315 L16.1692913,14.8582677 C16.1692913,15.1653543 16.4173228,15.4133858 16.7244094,15.4133858 C17.0314961,15.4133858 17.2795276,15.1653543 17.2795276,14.8582677 L17.2795276,10.480315 L18.2322835,11.4330709 C18.4488189,11.6496063 18.7992126,11.6496063 19.019685,11.4330709 C19.2362205,11.2165354 19.2362205,10.8661417 19.019685,10.6456693 Z" id="lift-copy" fill="#000000" fill-rule="nonzero"></path>
    </g>
</svg>