<?xml version="1.0" encoding="UTF-8"?>
<svg width="24px" height="24px" viewBox="0 0 24 24" version="1.1" xmlns="http://www.w3.org/2000/svg" xmlns:xlink="http://www.w3.org/1999/xlink">
    <!-- Generator: Sketch 52.2 (67145) - http://www.bohemiancoding.com/sketch -->
    <title>Artboard Copy 4</title>
    <desc>Created with Sketch.</desc>
    <g id="Artboard-Copy-4" stroke="none" stroke-width="1" fill="none" fill-rule="evenodd">
        <path d="M19.2653363,13.4125723 C19.1243361,12.5721865 18.665543,10.0022186 18.1687883,9.02919614 C17.8379801,8.38192926 16.9887248,7.88639871 15.6459688,7.5585209 C14.5548439,7.2921865 13.1600261,7.14469453 11.7185699,7.14469453 C10.2771136,7.14469453 8.88229594,7.2911254 7.79117105,7.5585209 C6.44841496,7.88745981 5.5991597,8.38192926 5.26835146,9.02919614 C4.77159678,10.0011576 4.31280371,12.5721865 4.17180348,13.4125723 C3.41365606,13.920836 3.04163236,14.6561736 3.04163236,15.6334405 L3.04163236,18.2861736 C3.04163236,18.9780064 3.49500235,19.5679743 4.12624955,19.7865595 L4.12624955,20.9389068 C4.12624955,21.5235691 4.61324267,22 5.21086675,22 L6.29548394,22 C6.89310801,22 7.38010113,21.5235691 7.38010113,20.9389068 L7.38010113,19.8778135 L16.0570387,19.8778135 L16.0570387,20.9389068 C16.0570387,21.5235691 16.5440318,22 17.1416559,22 L18.2262731,22 C18.8238971,22 19.3108902,21.5235691 19.3108902,20.9389068 L19.3108902,19.7865595 C19.9421374,19.5679743 20.3955074,18.9780064 20.3955074,18.2861736 L20.3955074,15.6334405 C20.3955074,14.6561736 20.0234837,13.920836 19.2653363,13.4125723 L19.2653363,13.4125723 Z M11.7230715,7.97814824 C14.9696647,7.97814824 17.0751677,8.69080576 17.4093924,9.36273999 C17.7323637,10.0131814 18.0913458,11.7337402 18.3130369,12.9633573 C18.202754,12.9305524 18.0890951,12.9000099 17.9720602,12.8728611 C17.6715956,12.8015953 16.8982868,12.7232961 16.5516834,12.6757856 L13.6926233,10.4939425 C13.4405481,10.3118189 13.1458454,10.3762744 12.9646664,10.6296637 C12.7834874,10.8830531 12.8304017,11.0844301 13.0824769,11.2665537 L14.8447525,12.5357628 C13.8882172,12.5040891 12.8394044,12.5040891 11.7219461,12.5040891 C11.5902818,12.5040891 11.1265443,12.5176634 10.9960053,12.5176634 L8.02861825,10.4939425 C7.76979105,10.3208685 7.52107933,10.3694872 7.34890298,10.6296637 C7.17672663,10.8898403 7.21272626,11.1047917 7.47155345,11.2778657 L9.32160522,12.5176635 C7.81253015,12.5448124 6.5003888,12.6273902 5.47295738,12.8728611 C5.35592247,12.9011411 5.24226357,12.9316836 5.13198068,12.9633573 C5.35479714,11.7337402 5.71265386,10.0131814 6.03675053,9.36273999 C6.37097521,8.69193696 8.47647817,7.97814824 11.7230715,7.97814824 Z M6.5360814,21.2514469 L4.97423262,21.2514469 L4.97423262,19.8778135 L6.5360814,19.8778135 L6.5360814,21.2514469 L6.5360814,21.2514469 Z M16.9089456,21.2514469 L16.9089456,19.8778135 L18.4707943,19.8778135 L18.4707943,21.2514469 L16.9089456,21.2514469 L16.9089456,21.2514469 Z M19.5514678,18.4748647 C19.5514678,18.7934983 19.3009409,19.0520995 18.992256,19.0520995 L4.45275101,19.0520995 C4.14406613,19.0520995 3.89353927,18.7934983 3.89353927,18.4748647 L3.89353927,15.5886911 C3.89353927,14.5219613 4.43709308,13.9528079 5.77025385,13.6249386 C7.17387529,13.2797522 9.28210352,13.2797522 11.7225035,13.2797522 C14.1629035,13.2797522 16.2700133,13.2797522 17.6747532,13.6249386 C19.007914,13.9528079 19.5514678,14.5219613 19.5514678,15.5886911 L19.5514678,18.4748647 Z M6.83779253,17.4180064 C7.5445028,17.4180064 8.11961285,16.8553698 8.11961285,16.1639871 C8.11961285,15.4726045 7.5445028,14.9099678 6.83779253,14.9099678 C6.13108227,14.9099678 5.55597222,15.4726045 5.55597222,16.1639871 C5.55597222,16.8553698 6.13108227,17.4180064 6.83779253,17.4180064 Z M6.83779253,15.7459807 C7.07364747,15.7459807 7.26506597,15.9332476 7.26506597,16.1639871 C7.26506597,16.3947267 7.07364747,16.5819936 6.83779253,16.5819936 C6.6019376,16.5819936 6.41051909,16.3947267 6.41051909,16.1639871 C6.41051909,15.9332476 6.6019376,15.7459807 6.83779253,15.7459807 Z M16.5993473,17.4180064 C17.3060575,17.4180064 17.8811676,16.8553698 17.8811676,16.1639871 C17.8811676,15.4726045 17.3060575,14.9099678 16.5993473,14.9099678 C15.892637,14.9099678 15.3175269,15.4726045 15.3175269,16.1639871 C15.3175269,16.8553698 15.892637,17.4180064 16.5993473,17.4180064 Z M16.5993473,15.7459807 C16.8352022,15.7459807 17.0266207,15.9332476 17.0266207,16.1639871 C17.0266207,16.3947267 16.8352022,16.5819936 16.5993473,16.5819936 C16.3634923,16.5819936 16.1720738,16.3947267 16.1720738,16.1639871 C16.1720738,15.9332476 16.3634923,15.7459807 16.5993473,15.7459807 Z M22.5103342,4.90519624 C22.8740554,4.99858852 23.0810592,5.32464227 22.96999,5.63001044 L22.9460673,5.69472966 C22.8349981,6.00009783 22.4458896,6.1735699 22.0821684,6.08017762 L12.0149014,3.28496307 L1.9178532,6.08017762 C1.55388785,6.1735699 1.16502346,6.00009783 1.05395422,5.69472966 L1.03003161,5.63001044 C0.918962375,5.32464227 1.12572204,4.99858852 1.48944328,4.90519624 L12.0149014,2 L22.5103342,4.90519624 Z" id="parking-copy-2" fill="#000000"></path>
    </g>
</svg>