<?xml version="1.0" encoding="UTF-8"?>
<svg width="24px" height="24px" viewBox="0 0 24 24" version="1.1" xmlns="http://www.w3.org/2000/svg" xmlns:xlink="http://www.w3.org/1999/xlink">
    <!-- Generator: Sketch 52.2 (67145) - http://www.bohemiancoding.com/sketch -->
    <title>Artboard Copy 5</title>
    <desc>Created with Sketch.</desc>
    <g id="Artboard-Copy-5" stroke="none" stroke-width="1" fill="none" fill-rule="evenodd">
        <path d="M12.5115618,16.9021992 C12.3989533,17.1397154 12.0829138,17.0769959 12.0826309,17.0767232 L12.0826309,13.6585072 L10.1971458,13.6585072 C10.1971458,13.6585072 10.1617788,13.5254327 10.2412838,13.3612711 L12.1400669,9.29867984 C12.2659734,9.07179866 12.5599438,9.14106286 12.5599438,9.14106286 L12.5576803,12.3983895 L14.4377896,12.4057522 C14.4377896,12.4057522 14.4711761,12.5167386 14.3959151,12.6838998 L12.5115618,16.9021992 Z M5.13315843,7.27801928 L5.13315843,18.9070435 L21,18.9070435 L21,19 C21,19.5522847 20.5522847,20 20,20 L5.13287549,20 C4.50730413,20 4,19.5099694 4,18.9070435 L4,7.27801928 C4,6.67509344 4.50730413,6.1850628 5.13287549,6.1850628 L6.93206511,6.1850628 L6.93206511,4.63943472 C6.93206511,3.73490961 7.6948604,3 8.63307597,3 L11.4403663,3 L11.4403663,3.54647824 C11.4403663,3.73845463 11.437254,3.85980334 11.4327271,3.99505943 C11.428483,4.14722253 11.4228243,4.31547457 11.4228243,4.63943472 L11.4228243,6.1850628 L13.760441,6.1850628 L13.760441,4.63943472 C13.760441,4.31574726 13.7550652,4.14749523 13.7494065,3.99505943 C13.7462942,3.85953065 13.7417672,3.73818193 13.7417672,3.54647824 L13.7417672,3 L16.5479259,3 C17.4852926,3 18.247805,3.7351823 18.247805,4.63943472 L18.247805,6.1850628 L19.8424319,6.1850628 C20.469135,6.1850628 20.9764392,6.67509344 20.9764392,7.27801928 L20.9764392,19.2875876 L19.8424319,19.2875876 L19.8424319,7.27801928 L5.13315843,7.27801928 Z M16.5479259,4.09295648 L14.886809,4.09295648 C14.8899213,4.22494025 14.8933165,4.3880111 14.8933165,4.63943472 L14.8933165,6.1850628 L17.1137977,6.1850628 L17.1137977,4.63943472 C17.1137977,4.33783545 16.8597213,4.09295648 16.5479259,4.09295648 Z M8.06663822,4.63943472 L8.06692116,4.63943472 L8.06692116,6.1850628 L10.2893829,6.1850628 L10.2893829,4.63943472 C10.2893829,4.3880111 10.2924952,4.22494025 10.2970222,4.09295648 L8.63364184,4.09295648 C8.32071469,4.09295648 8.06663822,4.33810815 8.06663822,4.63943472 Z" id="power-backup-copy" fill="#000000" fill-rule="nonzero"></path>
    </g>
</svg>