<?xml version="1.0" encoding="UTF-8"?>
<svg width="24px" height="24px" viewBox="0 0 24 24" version="1.1" xmlns="http://www.w3.org/2000/svg" xmlns:xlink="http://www.w3.org/1999/xlink">
    <!-- Generator: Sketch 52.2 (67145) - http://www.bohemiancoding.com/sketch -->
    <title>Artboard</title>
    <desc>Created with Sketch.</desc>
    <g id="Artboard" stroke="none" stroke-width="1" fill="none" fill-rule="evenodd">
        <path d="M19.9667429,3.7222089 C19.958109,3.77648848 19.9423061,3.88092491 19.9203615,4.0340225 C19.8840257,4.28752039 19.8436034,4.58668422 19.8001221,4.93001848 C19.6761456,5.908955 19.5522676,7.0466011 19.4367102,8.33099551 C19.090827,12.175412 18.890646,16.4952007 18.9102775,21.1827196 L18.9877455,20.9054139 C18.9102493,21.0319272 18.6884573,21.2632419 18.2816257,21.5095993 C17.9760447,21.6946442 17.6127206,21.8520344 17.1858758,21.9714906 L17.3250278,21.952381 L7.56426225,21.952381 C7.55223492,21.9477765 7.40597786,21.9176553 7.20971005,21.8527652 C6.8744887,21.7419343 6.53847975,21.5721948 6.2258677,21.3324283 C6.04092419,21.1905807 5.86936448,21.0277161 5.71352186,20.8421587 L5.83650459,21.1866911 C5.83677923,21.1631286 5.83677923,21.1631286 5.83756561,21.0531078 C5.84499536,19.8115691 5.82242811,17.9621273 5.74434193,15.5971243 C5.62397104,11.9514406 5.39701753,7.97507051 5.03792446,3.76029667 L5.0398293,2.55326689 C5.0398293,2.25951582 5.23446305,2.04761905 5.45380447,2.04761905 L19.5673439,2.04761905 C19.7785026,2.04761905 19.9601707,2.25175947 19.9601707,2.55326689 L19.9601707,3.80509413 L19.9667429,3.7222089 Z M21,3.80509413 L21,2.55326689 C21,1.69712205 20.3796192,1 19.5673439,1 L5.45380447,1 C4.64140326,1 4,1.69829245 4,2.55326689 L4,3.80509413 C4.35938177,8.04569645 4.585299,12.0039101 4.70508746,15.6319538 C4.7491689,16.9670524 4.77626328,18.1849512 4.78955308,19.2740837 C4.79866361,20.0207141 4.80033636,20.6154713 4.79775521,21.0467917 C4.79699019,21.1537454 4.79699019,21.1537454 4.7967477,21.1743277 C4.79527157,21.3003373 4.83893511,21.4226594 4.91973043,21.5188601 C5.12531435,21.763643 5.3519793,21.9788199 5.59601589,22.1659906 C6.3017155,22.7072468 7.00775502,22.9406777 7.50659509,22.9967679 L17.3250278,23 L17.4641798,22.9808903 C17.9814164,22.8361372 18.431316,22.6412429 18.8173004,22.4075096 C19.3741096,22.0703331 19.7118285,21.7181141 19.8726296,21.4556049 C19.9236699,21.3722811 19.9505076,21.2762123 19.9500975,21.1782993 C19.93061,16.5251606 20.1292691,12.2382131 20.4722939,8.42556846 C20.5866888,7.15409322 20.7091883,6.02910752 20.8315892,5.06261222 C20.8743401,4.72504534 20.9139905,4.43159382 20.9495148,4.18375744 C20.9706862,4.03605445 20.9856805,3.93696191 20.9934718,3.88797937 L21,3.80509413 Z M6.14455003,5.3881867 C6.24532985,6.10598314 6.34617228,6.91221843 6.44031661,7.78812487 C6.74438556,10.6171424 6.90952861,13.4937534 6.86290974,16.212521 C6.86103285,16.3219794 6.89324317,16.4292795 6.95501467,16.5193441 C7.04853802,16.6557037 7.21744286,16.8280913 7.47318359,16.991225 C7.76230397,17.1756512 8.1082281,17.3073888 8.51060423,17.3660564 L16.1769427,17.3714569 C16.4849837,17.3417037 16.8385015,17.2614375 17.2023532,17.0907136 C17.4318789,16.9830173 17.6364854,16.8490065 17.8082292,16.6826989 C17.9077833,16.5862959 17.9651841,16.4539533 17.9677713,16.3148605 C17.9699604,16.1971781 17.9752118,15.9749665 17.9843728,15.6631906 C17.9996655,15.1427303 18.0205614,14.5625837 18.0479044,13.9377352 C18.1259992,12.1530909 18.2399945,10.3687356 18.3964884,8.70525039 C18.5489916,7.08418614 18.7343166,5.66539396 18.9547634,4.50829103 C19.0162992,4.18529564 18.7706154,3.88574219 18.4441694,3.88574219 L6.52394469,3.88574219 C6.20259393,3.88574219 5.95819188,4.17651544 6.01113452,4.4958495 C6.03752106,4.65500515 6.08424869,4.95869513 6.14455003,5.3881867 Z M6.52394469,4.93336124 L18.4441694,4.93336124 L17.9335754,4.3108124 C17.7060375,5.50513569 17.5166597,6.95495501 17.3612985,8.60639934 C17.2029641,10.2894484 17.0878916,12.0906654 17.0090842,13.8915934 C16.9815113,14.5216952 16.9604347,15.1068596 16.9449988,15.6321912 C16.9357226,15.9478905 16.9303819,16.1738754 16.9281246,16.2952312 L17.0876668,15.9273928 C17.0054443,16.0070128 16.8954519,16.0790543 16.7633546,16.141036 C16.5227729,16.25392 16.2718572,16.3108904 16.1225577,16.3267114 L8.58506982,16.3238378 C8.404665,16.2920775 8.19699977,16.2129928 8.0294277,16.1061007 C7.90058532,16.0239138 7.82912571,15.9509807 7.81047899,15.9237933 L7.90258391,16.2306164 C7.95003952,13.4630507 7.78249203,10.5445568 7.47410241,7.67534031 C7.37869338,6.78766724 7.27644293,5.9701748 7.17412987,5.24145802 C7.11257548,4.80304165 7.06452643,4.49076363 7.03675487,4.32325392 L6.52394469,4.93336124 Z M13.0654232,14.2475935 L11.931064,14.2475935 C11.466775,14.2475935 11.0330296,14.5524735 11.0330296,15.0371837 L11.0330296,16.5875713 C11.0330296,17.0722815 11.466775,17.3771616 11.931064,17.3771616 L13.0654232,17.3771616 C13.5297122,17.3771616 13.9634576,17.0722815 13.9634576,16.5875713 L13.9634576,15.0371837 C13.9634576,14.5524735 13.5297122,14.2475935 13.0654232,14.2475935 Z M12.9236283,16.5875713 C12.9236283,16.396416 13.0187675,16.3295425 13.0654232,16.3295425 L11.931064,16.3295425 C11.9777197,16.3295425 12.0728589,16.396416 12.0728589,16.5875713 L12.0728589,15.0371837 C12.0728589,15.2283391 11.9777197,15.2952125 11.931064,15.2952125 L13.0654232,15.2952125 C13.0187675,15.2952125 12.9236283,15.2283391 12.9236283,15.0371837 L12.9236283,16.5875713 Z M9.80431211,6.77142625 C9.52652881,6.77142625 9.29781343,6.99142426 9.28495479,7.27098853 L8.84559031,16.8233692 C8.83186116,17.1218595 9.06835888,17.371426 9.36494763,17.371426 L15.6039234,17.371426 C15.9005121,17.371426 16.1370098,17.1218595 16.1232807,16.8233692 L15.6839162,7.27098853 C15.6710575,6.99142426 15.4423422,6.77142625 15.1645589,6.77142625 L9.80431211,6.77142625 Z M14.6452015,7.31948301 L15.084566,16.8718637 L15.6039234,16.3238069 L9.36494763,16.3238069 L9.88430495,16.8718637 L10.3236694,7.31948301 L9.80431211,7.81904529 L15.1645589,7.81904529 L14.6452015,7.31948301 Z" id="monorail-metro" fill="#000000" fill-rule="nonzero"></path>
    </g>
</svg>