<?xml version="1.0" encoding="UTF-8"?>
<svg width="24px" height="24px" viewBox="0 0 24 24" version="1.1" xmlns="http://www.w3.org/2000/svg" xmlns:xlink="http://www.w3.org/1999/xlink">
    <!-- Generator: Sketch 52.2 (67145) - http://www.bohemiancoding.com/sketch -->
    <title>Artboard Copy 2</title>
    <desc>Created with Sketch.</desc>
    <g id="Artboard-Copy-2" stroke="none" stroke-width="1" fill="none" fill-rule="evenodd">
        <path d="M21.620421,2 L2.37964882,2 C1.61886546,2 1,2.6263024 1,3.39614126 L1,15.9252282 C1,16.695067 1.61886546,17.3213694 2.37964882,17.3213694 L11.5111445,17.3213694 L11.5111445,19.3152613 C9.96387608,19.3655097 8.51822704,19.6527946 7.39831872,20.1384581 C6.02949533,20.732039 5.27569611,21.5726214 5.27569611,22.5052904 C5.27569611,22.7785114 5.49457935,23 5.76458655,23 L18.2354134,23 C18.5054207,23 18.7243039,22.7785114 18.7243039,22.5052904 C18.7243039,21.5726214 17.9705047,20.732039 16.6016813,20.1384581 C15.481773,19.6527946 14.0361938,19.365439 12.4888555,19.3152613 L12.4888555,17.3213694 L21.6203512,17.3213694 C22.3811345,17.3213694 23,16.695067 23,15.9252282 L23,3.39614126 C23.0000698,2.6263024 22.3812044,2 21.620421,2 L21.620421,2 Z M17.5710113,22.0105807 L6.4290585,22.0105807 C6.66693863,21.6670402 7.13746075,21.3280934 7.78349455,21.0478758 C8.90179651,20.5629897 10.3991981,20.2958465 12.0000349,20.2958465 C13.6008717,20.2958465 15.0982733,20.562919 16.2165753,21.0478758 C16.8626091,21.3280934 17.3330614,21.6670402 17.5710113,22.0105807 L17.5710113,22.0105807 Z M22.022289,15.9252282 C22.022289,16.149473 21.8420281,16.3319502 21.620421,16.3319502 L2.37964882,16.3319502 C2.15804177,16.3319502 1.97778088,16.149473 1.97778088,15.9252282 L1.97778088,3.39614126 C1.97778088,3.17189645 2.15804177,2.98941927 2.37964882,2.98941927 L21.620421,2.98941927 C21.8420281,2.98941927 22.022289,3.17189645 22.022289,3.39614126 L22.022289,15.9252282 Z M20.2842136,4.25340239 L3.71585624,4.25340239 C3.44584903,4.25340239 3.2269658,4.47489096 3.2269658,4.74811203 L3.2269658,14.5731867 C3.2269658,14.8464078 3.44584903,15.0678964 3.71585624,15.0678964 L20.2842834,15.0678964 C20.5542906,15.0678964 20.7731739,14.8464078 20.7731739,14.5731867 L20.7731739,4.74811203 C20.773104,4.47489096 20.5542208,4.25340239 20.2842136,4.25340239 Z M19.7953232,14.0784771 L4.20474668,14.0784771 L4.20474668,5.24282166 L19.795393,5.24282166 L19.795393,14.0784771 L19.7953232,14.0784771 Z" id="tv-copy" fill="#000000"></path>
    </g>
</svg>