<?xml version="1.0" encoding="UTF-8"?>
<svg width="24px" height="24px" viewBox="0 0 24 24" version="1.1" xmlns="http://www.w3.org/2000/svg" xmlns:xlink="http://www.w3.org/1999/xlink">
    <!-- Generator: Sketch 52.2 (67145) - http://www.bohemiancoding.com/sketch -->
    <title>Artboard Copy 2</title>
    <desc>Created with Sketch.</desc>
    <g id="Artboard-Copy-2" stroke="none" stroke-width="1" fill="none" fill-rule="evenodd">
        <path d="M4.1,3.1 L4.1,21.9 L19.9,21.9 L19.9,3.1 L4.1,3.1 Z M4,2 L20,2 C20.5522847,2 21,2.44771525 21,3 L21,22 C21,22.5522847 20.5522847,23 20,23 L4,23 C3.44771525,23 3,22.5522847 3,22 L3,3 C3,2.44771525 3.44771525,2 4,2 Z M4.09997559,7.1 L19.9000244,7.1 L19.9000244,6 L4.09997559,6 L4.09997559,7.1 Z M12,20.55 C15.0651804,20.55 17.55,18.0651804 17.55,15 C17.55,11.9348196 15.0651804,9.45 12,9.45 C8.93481964,9.45 6.45,11.9348196 6.45,15 C6.45,18.0651804 8.93481964,20.55 12,20.55 Z M12,19.45 C9.54233286,19.45 7.55,17.4576671 7.55,15 C7.55,12.5423329 9.54233286,10.55 12,10.55 C14.4576671,10.55 16.45,12.5423329 16.45,15 C16.45,17.4576671 14.4576671,19.45 12,19.45 Z M11.55,11.45 C11.2462434,11.45 11,11.6962434 11,12 C11,12.3037566 11.2462434,12.55 11.55,12.55 C13.17924,12.55 14.5,13.87076 14.5,15.5 C14.5,15.8037566 14.7462434,16.05 15.05,16.05 C15.3537566,16.05 15.6,15.8037566 15.6,15.5 C15.6,13.2632468 13.7867532,11.45 11.55,11.45 Z M14,5.10000002 L18,5.10000002 C18.2761424,5.10000002 18.5,4.85375663 18.5,4.55000001 C18.5,4.24624339 18.2761424,4 18,4 L14,4 C13.7238576,4 13.5,4.24624339 13.5,4.55000001 C13.5,4.85375663 13.7238576,5.10000002 14,5.10000002 Z" id="washing-machine-copy" fill="#000000" fill-rule="nonzero"></path>
    </g>
</svg>