<svg id="Layer_1" data-name="Layer 1" xmlns="http://www.w3.org/2000/svg" xmlns:xlink="http://www.w3.org/1999/xlink" width="24" height="24" viewBox="0 0 24 24">
  <defs>
    <style>
      .cls-1 {
        fill: none;
        clip-rule: evenodd;
      }

      .cls-2 {
        clip-path: url(#clip-path);
      }

      .cls-3 {
        clip-path: url(#clip-path-2);
      }
    </style>
    <clipPath id="clip-path">
      <path class="cls-1" d="M11.38,18.42a.86.86,0,0,0,0,1.19.8.8,0,0,0,1.16,0,.88.88,0,0,0,0-1.19.71.71,0,0,0-.57-.26A.78.78,0,0,0,11.38,18.42Zm-.86,2.08a2.16,2.16,0,0,1,0-3,2,2,0,0,1,2.88,0,2.18,2.18,0,0,1,0,3,2,2,0,0,1-1.43.61A2.1,2.1,0,0,1,10.52,20.5ZM21.65,8.6a13.76,13.76,0,0,0-19.88,0,.59.59,0,0,1-.86,0,.62.62,0,0,1,0-.89,15,15,0,0,1,21.63,0,.62.62,0,0,1,0,.89.66.66,0,0,1-.44.18A.68.68,0,0,1,21.65,8.6Zm-5.18,7a6.38,6.38,0,0,0-9.24,0,.59.59,0,0,1-.86,0,.62.62,0,0,1,0-.89,7.61,7.61,0,0,1,11,0,.64.64,0,0,1,0,.89.53.53,0,0,1-.42.18A.6.6,0,0,1,16.47,15.55Zm2.92-3.32A10.63,10.63,0,0,0,4,12.23a.59.59,0,0,1-.86,0,.62.62,0,0,1,0-.89,11.83,11.83,0,0,1,17.1,0,.62.62,0,0,1,0,.89.49.49,0,0,1-.41.17A.67.67,0,0,1,19.39,12.23Z"/>
    </clipPath>
    <clipPath id="clip-path-2">
      <path class="cls-1" d="M497.21-472.46a1.87,1.87,0,0,0-1.33.55c-1.74,1.73-.84,3.12-1.63,3.92,0,0-4.11,3.51-4.14,3.55a.7.7,0,0,0,0,1l0,0a.71.71,0,0,0,.47.18.72.72,0,0,0,.5-.21l3.55-4.13c.8-.81,2.18.09,3.92-1.63a1.93,1.93,0,0,0,0-2.67A1.89,1.89,0,0,0,497.21-472.46Zm-4.83,3.95a2,2,0,0,1,1.33.64l.41-.36a2,2,0,0,1-.68-1.35v-.07a2.44,2.44,0,0,0-.71-1.63l-1.56-1.59a.3.3,0,0,0-.43,0,.28.28,0,0,0,0,.42l1.58,1.59a.29.29,0,0,1,0,.4.29.29,0,0,1-.41,0L490.34-472a.3.3,0,0,0-.43,0,.3.3,0,0,0,0,.42l1.6,1.59a.3.3,0,0,1,0,.4.29.29,0,0,1-.4,0l-1.59-1.6a.31.31,0,0,0-.42,0,.3.3,0,0,0,0,.43l1.59,1.58a2.62,2.62,0,0,0,1.64.72Zm2.08,1.56c1,1.21,2.77,3.23,2.79,3.25a.68.68,0,0,0,1,0,.69.69,0,0,0,0-1s-2.09-1.8-3.3-2.82Zm6.14,4.21a.55.55,0,0,1-.55.55H488a.55.55,0,0,1-.55-.55v-10l6.27-6.93a.44.44,0,0,1,.33-.15.44.44,0,0,1,.33.15l6.27,6.93Zm4.26-7-9.71-10.74A1.55,1.55,0,0,0,494-481a1.55,1.55,0,0,0-1.15.51l-9.71,10.74a.55.55,0,0,0,0,.77.55.55,0,0,0,.37.15A.53.53,0,0,0,484-469l2.34-2.58v8.82a1.65,1.65,0,0,0,1.65,1.65h12.1a1.65,1.65,0,0,0,1.65-1.65v-8.82L504-469a.54.54,0,0,0,.78,0,.55.55,0,0,0,0-.77Z"/>
    </clipPath>
  </defs>
  <title>Artboard 3 copy 32</title>
  <g class="cls-2">
    <rect x="-4.28" y="-1.89" width="32" height="28"/>
  </g>
</svg>
